<svg width="84" height="78" viewBox="0 0 84 78" fill="none" xmlns="http://www.w3.org/2000/svg">
<g filter="url(#filter0_f_466_343)">
<path d="M50.1253 41.4358L51.2366 34.381H44.3907V29.7954C44.3907 27.8663 45.3465 25.9814 48.4027 25.9814H51.5589V19.9737C49.7209 19.6809 47.8636 19.5225 46.0022 19.4997C40.3677 19.4997 36.6891 22.8838 36.6891 29.0017V34.381H30.4434V41.4358H36.6891V58.4997H44.3907V41.4358H50.1253Z" fill="#337FFF"/>
</g>
<rect x="0.5" y="9.5" width="83" height="57" rx="9.5" fill="url(#paint0_linear_466_343)" stroke="#E3E3E3"/>
<rect x="0.5" y="9.5" width="83" height="57" rx="9.5" fill="url(#paint1_linear_466_343)" stroke="#E3E3E3"/>
<path d="M49.4233 40.2485L50.4492 33.7363H44.1299V29.5034C44.1299 27.7228 45.0121 25.9828 47.8332 25.9828H50.7467V20.4373C49.05 20.167 47.3356 20.0207 45.6174 19.9998C40.4163 19.9998 37.0207 23.1236 37.0207 28.7708V33.7363H31.2554V40.2485H37.0207V55.9998H44.1299V40.2485H49.4233Z" fill="#337FFF"/>
<defs>
<filter id="filter0_f_466_343" x="20.4434" y="9.49973" width="41.1157" height="59" filterUnits="userSpaceOnUse" color-interpolation-filters="sRGB">
<feFlood flood-opacity="0" result="BackgroundImageFix"/>
<feBlend mode="normal" in="SourceGraphic" in2="BackgroundImageFix" result="shape"/>
<feGaussianBlur stdDeviation="5" result="effect1_foregroundBlur_466_343"/>
</filter>
<linearGradient id="paint0_linear_466_343" x1="-13" y1="1" x2="87.5" y2="72.5" gradientUnits="userSpaceOnUse">
<stop stop-color="#D9D9D9"/>
<stop offset="1" stop-color="#D9D9D9" stop-opacity="0"/>
</linearGradient>
<linearGradient id="paint1_linear_466_343" x1="-13" y1="1" x2="87.5" y2="72.5" gradientUnits="userSpaceOnUse">
<stop stop-color="white"/>
<stop offset="1" stop-color="#D9D9D9" stop-opacity="0"/>
</linearGradient>
</defs>
</svg>
