<svg width="23" height="43" viewBox="0 0 23 43" fill="none" xmlns="http://www.w3.org/2000/svg">
<path d="M1.33295 22.9018H6.04644V42.3065C6.04644 42.6896 6.35688 43 6.73999 43H14.7319C15.115 43 15.4254 42.6896 15.4254 42.3065V22.9932H20.844C21.1963 22.9932 21.4927 22.7288 21.533 22.3789L22.3559 15.235C22.3785 15.0385 22.3163 14.8417 22.1848 14.6942C22.0531 14.5466 21.8648 14.4621 21.6671 14.4621H15.4257V9.98405C15.4257 8.63412 16.1526 7.94959 17.5863 7.94959C17.7906 7.94959 21.6671 7.94959 21.6671 7.94959C22.0502 7.94959 22.3606 7.63902 22.3606 7.25604V0.698681C22.3606 0.315565 22.0502 0.00513226 21.6671 0.00513226H16.0431C16.0034 0.00319032 15.9154 0 15.7855 0C14.8097 0 11.4178 0.191558 8.73852 2.65643C5.76986 5.3879 6.18252 8.6584 6.28114 9.22544V14.462H1.33295C0.949837 14.462 0.639404 14.7724 0.639404 15.1556V22.2081C0.639404 22.5912 0.949837 22.9018 1.33295 22.9018Z" fill="white"/>
</svg>
