<?xml version="1.0" encoding="UTF-8"?><svg id="uuid-96dc193e-0510-48c0-adfa-911c6b8403d8" xmlns="http://www.w3.org/2000/svg" xmlns:xlink="http://www.w3.org/1999/xlink" viewBox="0 0 561.84 462"><defs><style>.uuid-507e9b95-fbae-415e-8ea3-6f7d1be07a51{fill:url(#uuid-e9e528e1-84c3-4ff7-83bf-f4e333435336);}.uuid-258a910e-9512-486b-9c36-ea6b2cd5b5e1{fill:url(#uuid-1284b6b1-fb1b-4f2b-aa32-e1fc526b53bf);}.uuid-38792445-c131-4c60-b093-e2d09b77a79e{fill:url(#uuid-8fa66e7c-3230-4d61-9b94-ae0caa6f9357);}.uuid-2db999f0-1c51-4ee9-9ac3-21f2c1f81a6d{fill:url(#uuid-1267a06f-48fc-4476-9d90-3f17806e4dcb);}.uuid-506a73c5-1e77-405b-a2d1-bfaa8f0444a2{fill:url(#uuid-e6497420-6a78-4837-8792-17610848551d);}</style><linearGradient id="uuid-e9e528e1-84c3-4ff7-83bf-f4e333435336" x1="469.19" y1="46.33" x2="561.84" y2="46.33" gradientUnits="userSpaceOnUse"><stop offset="0" stop-color="#025abd"/><stop offset="1" stop-color="#0284f3"/></linearGradient><linearGradient id="uuid-8fa66e7c-3230-4d61-9b94-ae0caa6f9357" y1="302.37" y2="302.37" xlink:href="#uuid-e9e528e1-84c3-4ff7-83bf-f4e333435336"/><linearGradient id="uuid-e6497420-6a78-4837-8792-17610848551d" x1="0" y1="302.37" x2="370.6" y2="302.37" xlink:href="#uuid-e9e528e1-84c3-4ff7-83bf-f4e333435336"/><linearGradient id="uuid-1267a06f-48fc-4476-9d90-3f17806e4dcb" x1="277.95" y1="46.33" x2="370.6" y2="46.33" gradientUnits="userSpaceOnUse"><stop offset="0" stop-color="#025abd"/><stop offset="1" stop-color="#0284f3"/></linearGradient><linearGradient id="uuid-1284b6b1-fb1b-4f2b-aa32-e1fc526b53bf" x1="0" x2="92.65" xlink:href="#uuid-e9e528e1-84c3-4ff7-83bf-f4e333435336"/></defs><circle class="uuid-507e9b95-fbae-415e-8ea3-6f7d1be07a51" cx="515.52" cy="46.33" r="46.33"/><path class="uuid-38792445-c131-4c60-b093-e2d09b77a79e" d="M561.84,189.06v226.62c0,25.58-20.75,46.33-46.33,46.33s-46.33-20.75-46.33-46.33V189.06c0-25.58,20.75-46.33,46.33-46.33s46.33,20.75,46.33,46.33Z"/><path class="uuid-506a73c5-1e77-405b-a2d1-bfaa8f0444a2" d="M370.6,189.06v226.62c0,25.58-20.75,46.33-46.33,46.33s-46.33-20.75-46.33-46.33v-134.53c-28.33,13.21-59.95,20.6-93.28,20.6s-64-7.16-92.02-20.02v133.95c0,25.58-20.75,46.33-46.33,46.33S0,441.25,0,415.67V189.06c0-25.58,20.75-46.33,46.33-46.33,13.52,0,25.69,5.8,34.16,15.04,1.58,2.2,3.23,4.36,4.96,6.46,2.28,2.79,4.68,5.5,7.21,8.09,23.43,24.23,56.28,39.28,92.65,39.28s69.22-15.05,92.65-39.28c2.53-2.59,4.93-5.3,7.21-8.09,1.73-2.1,3.38-4.26,4.96-6.46,8.46-9.24,20.63-15.04,34.16-15.04,25.58,0,46.33,20.75,46.33,46.33Z"/><path class="uuid-2db999f0-1c51-4ee9-9ac3-21f2c1f81a6d" d="M370.6,46.33c0,25.58-20.75,46.33-46.33,46.33-3.56,0-7.01-.4-10.33-1.15h0c-20.61-4.7-36-23.14-36-45.17,0-13.61,5.87-25.85,15.24-34.34,8.21-7.45,19.12-11.98,31.09-11.98,25.58,0,46.33,20.75,46.33,46.33Z"/><path class="uuid-258a910e-9512-486b-9c36-ea6b2cd5b5e1" d="M92.65,46.33c0,22.04-15.39,40.48-36,45.16h0c-3.32,.76-6.77,1.16-10.33,1.16C20.75,92.65,0,71.9,0,46.33S20.75,0,46.33,0c11.97,0,22.87,4.53,31.09,11.98,9.37,8.49,15.24,20.73,15.24,34.34Z"/></svg>