<svg width="43" height="43" viewBox="0 0 43 43" fill="none" xmlns="http://www.w3.org/2000/svg">
<g clip-path="url(#clip0_10_821)">
<path d="M10.0093 13.8335H1.37702C0.993904 13.8335 0.683472 14.1441 0.683472 14.5271V42.259C0.683472 42.6421 0.993904 42.9526 1.37702 42.9526H10.0093C10.3925 42.9526 10.7029 42.6421 10.7029 42.259V14.5271C10.7029 14.1441 10.3925 13.8335 10.0093 13.8335Z" fill="white"/>
<path d="M5.69625 0.0473022C2.55531 0.0473022 0 2.59984 0 5.73731C0 8.87617 2.55531 11.4297 5.69625 11.4297C8.8347 11.4297 11.3879 8.87603 11.3879 5.73731C11.3881 2.59984 8.8347 0.0473022 5.69625 0.0473022Z" fill="white"/>
<path d="M31.9662 13.1443C28.4992 13.1443 25.9362 14.6347 24.3817 16.3282V14.5271C24.3817 14.1441 24.0713 13.8335 23.6882 13.8335H15.4212C15.0381 13.8335 14.7277 14.1441 14.7277 14.5271V42.259C14.7277 42.6421 15.0381 42.9525 15.4212 42.9525H24.0347C24.4178 42.9525 24.7282 42.6421 24.7282 42.259V28.5381C24.7282 23.9145 25.9841 22.1132 29.2071 22.1132C32.7173 22.1132 32.9963 25.0009 32.9963 28.776V42.2591C32.9963 42.6423 33.3067 42.9527 33.6898 42.9527H42.3065C42.6896 42.9527 43 42.6423 43 42.2591V27.0477C43 20.1725 41.6891 13.1443 31.9662 13.1443Z" fill="white"/>
</g>
<defs>
<clipPath id="clip0_10_821">
<rect width="43" height="43" fill="white"/>
</clipPath>
</defs>
</svg>
