<svg width="15" height="15" viewBox="0 0 15 15" fill="none" xmlns="http://www.w3.org/2000/svg">
<g clip-path="url(#clip0_1_4799)">
<path d="M11.875 2.5H11.5575L10.1925 0.73C10.0166 0.503629 9.79145 0.32026 9.53417 0.193784C9.27688 0.0673072 8.99419 0.0010394 8.7075 0L6.2925 0C6.00581 0.0010394 5.72312 0.0673072 5.46583 0.193784C5.20855 0.32026 4.98342 0.503629 4.8075 0.73L3.4425 2.5H3.125C2.2965 2.50099 1.50222 2.83055 0.916387 3.41639C0.330551 4.00222 0.000992411 4.7965 0 5.625L0 11.875C0.000992411 12.7035 0.330551 13.4978 0.916387 14.0836C1.50222 14.6694 2.2965 14.999 3.125 15H11.875C12.7035 14.999 13.4978 14.6694 14.0836 14.0836C14.6694 13.4978 14.999 12.7035 15 11.875V5.625C14.999 4.7965 14.6694 4.00222 14.0836 3.41639C13.4978 2.83055 12.7035 2.50099 11.875 2.5ZM5.7975 1.49375C5.85604 1.41816 5.93106 1.35691 6.01683 1.31468C6.10261 1.27244 6.19689 1.25032 6.2925 1.25H8.7075C8.80309 1.25041 8.89734 1.27257 8.9831 1.3148C9.06886 1.35703 9.14389 1.41823 9.2025 1.49375L9.97875 2.5H5.02125L5.7975 1.49375ZM13.75 11.875C13.75 12.3723 13.5525 12.8492 13.2008 13.2008C12.8492 13.5525 12.3723 13.75 11.875 13.75H3.125C2.62772 13.75 2.15081 13.5525 1.79917 13.2008C1.44754 12.8492 1.25 12.3723 1.25 11.875V5.625C1.25 5.12772 1.44754 4.65081 1.79917 4.29917C2.15081 3.94754 2.62772 3.75 3.125 3.75H11.875C12.3723 3.75 12.8492 3.94754 13.2008 4.29917C13.5525 4.65081 13.75 5.12772 13.75 5.625V11.875Z" fill="white"/>
<path d="M7.5 5C6.75832 5 6.0333 5.21993 5.41661 5.63199C4.79993 6.04404 4.31928 6.62971 4.03545 7.31494C3.75162 8.00016 3.67736 8.75416 3.82206 9.48159C3.96675 10.209 4.3239 10.8772 4.84835 11.4017C5.3728 11.9261 6.04098 12.2833 6.76841 12.4279C7.49584 12.5726 8.24984 12.4984 8.93506 12.2145C9.62029 11.9307 10.206 11.4501 10.618 10.8334C11.0301 10.2167 11.25 9.49168 11.25 8.75C11.249 7.75574 10.8536 6.80249 10.1506 6.09945C9.44751 5.3964 8.49426 5.00099 7.5 5ZM7.5 11.25C7.00555 11.25 6.5222 11.1034 6.11108 10.8287C5.69995 10.554 5.37952 10.1635 5.1903 9.70671C5.00108 9.24989 4.95158 8.74723 5.04804 8.26227C5.1445 7.77732 5.3826 7.33186 5.73223 6.98223C6.08187 6.6326 6.52732 6.3945 7.01228 6.29804C7.49723 6.20157 7.9999 6.25108 8.45671 6.4403C8.91353 6.62952 9.30397 6.94995 9.57868 7.36107C9.85338 7.7722 10 8.25555 10 8.75C10 9.41304 9.73661 10.0489 9.26777 10.5178C8.79893 10.9866 8.16304 11.25 7.5 11.25Z" fill="white"/>
</g>
<defs>
<clipPath id="clip0_1_4799">
<rect width="15" height="15" fill="white"/>
</clipPath>
</defs>
</svg>
