<svg width="27" height="27" viewBox="0 0 27 27" fill="none" xmlns="http://www.w3.org/2000/svg">
<path d="M7.875 10.625C7.32272 10.625 6.875 11.0727 6.875 11.625C6.875 12.1773 7.32272 12.625 7.875 12.625V10.625ZM7.8875 12.625C8.43979 12.625 8.8875 12.1773 8.8875 11.625C8.8875 11.0727 8.43979 10.625 7.8875 10.625V12.625ZM13.5 10.625C12.9477 10.625 12.5 11.0727 12.5 11.625C12.5 12.1773 12.9477 12.625 13.5 12.625V10.625ZM13.5125 12.625C14.0648 12.625 14.5125 12.1773 14.5125 11.625C14.5125 11.0727 14.0648 10.625 13.5125 10.625V12.625ZM19.125 10.625C18.5727 10.625 18.125 11.0727 18.125 11.625C18.125 12.1773 18.5727 12.625 19.125 12.625V10.625ZM19.1375 12.625C19.6898 12.625 20.1375 12.1773 20.1375 11.625C20.1375 11.0727 19.6898 10.625 19.1375 10.625V12.625ZM13.5 26L12.8492 26.7593C13.2237 27.0802 13.7763 27.0802 14.1508 26.7593L13.5 26ZM17.3079 22.7361L16.6571 21.9769L17.3079 22.7361ZM9.69214 22.7361L9.04135 23.4954L9.69214 22.7361ZM7.875 12.625H7.8875V10.625H7.875V12.625ZM7.5 11.625C7.5 11.4179 7.66789 11.25 7.875 11.25V13.25C8.77246 13.25 9.5 12.5225 9.5 11.625H7.5ZM7.875 11.25C8.08211 11.25 8.25 11.4179 8.25 11.625H6.25C6.25 12.5225 6.97754 13.25 7.875 13.25V11.25ZM8.25 11.625C8.25 11.8321 8.08211 12 7.875 12V10C6.97754 10 6.25 10.7275 6.25 11.625H8.25ZM7.875 12C7.66789 12 7.5 11.8321 7.5 11.625H9.5C9.5 10.7275 8.77246 10 7.875 10V12ZM13.5 12.625H13.5125V10.625H13.5V12.625ZM13.125 11.625C13.125 11.4179 13.2929 11.25 13.5 11.25V13.25C14.3975 13.25 15.125 12.5225 15.125 11.625H13.125ZM13.5 11.25C13.7071 11.25 13.875 11.4179 13.875 11.625H11.875C11.875 12.5225 12.6025 13.25 13.5 13.25V11.25ZM13.875 11.625C13.875 11.8321 13.7071 12 13.5 12V10C12.6025 10 11.875 10.7275 11.875 11.625H13.875ZM13.5 12C13.2929 12 13.125 11.8321 13.125 11.625H15.125C15.125 10.7275 14.3975 10 13.5 10V12ZM19.125 12.625H19.1375V10.625H19.125V12.625ZM18.75 11.625C18.75 11.4179 18.9179 11.25 19.125 11.25V13.25C20.0225 13.25 20.75 12.5225 20.75 11.625H18.75ZM19.125 11.25C19.3321 11.25 19.5 11.4179 19.5 11.625H17.5C17.5 12.5225 18.2275 13.25 19.125 13.25V11.25ZM19.5 11.625C19.5 11.8321 19.3321 12 19.125 12V10C18.2275 10 17.5 10.7275 17.5 11.625H19.5ZM19.125 12C18.9179 12 18.75 11.8321 18.75 11.625H20.75C20.75 10.7275 20.0225 10 19.125 10V12ZM7.25 2H19.75V0H7.25V2ZM25 7.25V15.5833H27V7.25H25ZM2 15.5833V7.25H0V15.5833H2ZM14.1508 25.2407L10.3429 21.9769L9.04135 23.4954L12.8492 26.7593L14.1508 25.2407ZM16.6571 21.9769L12.8492 25.2407L14.1508 26.7593L17.9587 23.4954L16.6571 21.9769ZM19.7486 20.8333C18.6148 20.8333 17.518 21.2389 16.6571 21.9769L17.9587 23.4954C18.457 23.0682 19.0921 22.8333 19.7486 22.8333V20.8333ZM0 15.5833C0 19.5877 3.24759 22.8333 7.25137 22.8333V20.8333C4.35159 20.8333 2 18.4825 2 15.5833H0ZM25 15.5833C25 18.4825 22.6484 20.8333 19.7486 20.8333V22.8333C23.7524 22.8333 27 19.5877 27 15.5833H25ZM19.75 2C22.6495 2 25 4.3505 25 7.25H27C27 3.24593 23.7541 0 19.75 0V2ZM10.3429 21.9769C9.48197 21.2389 8.38516 20.8333 7.25137 20.8333V22.8333C7.90791 22.8333 8.543 23.0682 9.04135 23.4954L10.3429 21.9769ZM7.25 0C3.24594 0 0 3.24594 0 7.25H2C2 4.35051 4.35051 2 7.25 2V0Z" fill="white"/>
</svg>
