<svg width="25" height="25" viewBox="0 0 25 25" fill="none" xmlns="http://www.w3.org/2000/svg">
<path d="M23.9054 9.99991C23.7101 9.80463 23.4452 9.69492 23.169 9.69492C22.8928 9.69492 22.6279 9.80463 22.4325 9.99991L11.0867 21.3947C10.6031 21.8784 10.0289 22.2621 9.39697 22.5239C8.76505 22.7857 8.08774 22.9205 7.40373 22.9205C6.02231 22.9206 4.69743 22.372 3.72055 21.3952C2.74367 20.4185 2.19481 19.0937 2.19472 17.7123C2.19462 16.3308 2.74329 15.006 3.72003 14.0291L14.7086 2.99574C15.2962 2.4175 16.0884 2.09488 16.9128 2.09814C17.7372 2.1014 18.5269 2.43028 19.1099 3.01314C19.6929 3.59601 20.022 4.38563 20.0255 5.21002C20.0289 6.03441 19.7065 6.82676 19.1284 7.41449L8.13982 18.4478C7.94165 18.6377 7.67781 18.7437 7.40337 18.7437C7.12892 18.7437 6.86508 18.6377 6.66691 18.4478C6.47163 18.2525 6.36192 17.9876 6.36192 17.7114C6.36192 17.4352 6.47163 17.1702 6.66691 16.9749L16.4502 7.14678C16.64 6.95032 16.745 6.6872 16.7426 6.41407C16.7402 6.14095 16.6307 5.87969 16.4376 5.68656C16.2444 5.49342 15.9832 5.38387 15.71 5.3815C15.4369 5.37912 15.1738 5.48412 14.9773 5.67387L5.19399 15.502C4.90375 15.7922 4.67352 16.1367 4.51644 16.5159C4.35936 16.8951 4.27851 17.3015 4.27851 17.7119C4.27851 18.1223 4.35936 18.5287 4.51644 18.9079C4.67352 19.2871 4.90375 19.6316 5.19399 19.9218C5.78943 20.49 6.58085 20.807 7.40389 20.807C8.22693 20.807 9.01835 20.49 9.61378 19.9218L20.6013 8.88741C21.5575 7.90647 22.0888 6.5883 22.08 5.21842C22.0713 3.84855 21.5231 2.53728 20.5544 1.56868C19.5857 0.600083 18.2743 0.0521427 16.9044 0.0435594C15.5346 0.0349761 14.2165 0.566441 13.2357 1.52282L2.24712 12.5562C0.879594 13.9237 0.111328 15.7784 0.111328 17.7124C0.111328 19.6464 0.879594 21.5011 2.24712 22.8687C3.61464 24.2362 5.4694 25.0044 7.40337 25.0044C9.33733 25.0044 11.1921 24.2362 12.5596 22.8687L23.9054 11.477C24.0028 11.3802 24.08 11.2651 24.1327 11.1384C24.1854 11.0116 24.2125 10.8757 24.2125 10.7384C24.2125 10.6012 24.1854 10.4653 24.1327 10.3385C24.08 10.2118 24.0028 10.0967 23.9054 9.99991Z" fill="#2B2B2B"/>
</svg>
