<svg id="Layer_1" data-name="Layer 1" xmlns="http://www.w3.org/2000/svg" xmlns:xlink="http://www.w3.org/1999/xlink" viewBox="0 0 100.65 87.37"><defs><style>.cls-1{fill:url(#linear-gradient);}.cls-2{fill:url(#linear-gradient-2);}.cls-3{fill:url(#linear-gradient-3);}.cls-4,.cls-5{fill:none;}.cls-4{stroke-width:1.01px;stroke:url(#linear-gradient-4);}.cls-5{stroke:#fff;stroke-linecap:round;stroke-width:8.2px;}.cls-6{fill:#5d73f4;}.cls-7{fill:#fedafe;}.cls-8{fill:#4b4bf8;}.cls-9{fill:#eb65e0;}</style><linearGradient id="linear-gradient" x1="57.56" y1="59.91" x2="11.47" y2="-32.02" gradientTransform="matrix(1, 0, 0, -1, 0, 87.91)" gradientUnits="userSpaceOnUse"><stop offset="0" stop-color="#0159bc"/><stop offset="1" stop-color="#0284f3"/></linearGradient><linearGradient id="linear-gradient-2" x1="231" y1="318.49" x2="299.01" y2="322.75" gradientTransform="matrix(0, 1, 1, 0, -267.56, -231.83)" gradientUnits="userSpaceOnUse"><stop offset="0" stop-color="#4a4bf8"/><stop offset="1" stop-color="#ec58d4"/></linearGradient><linearGradient id="linear-gradient-3" x1="229.14" y1="316.58" x2="307.22" y2="318.73" gradientTransform="matrix(0, 1, 1, 0, -261.94, -231.57)" gradientUnits="userSpaceOnUse"><stop offset="0" stop-color="#025cbf" stop-opacity="0.47"/><stop offset="0.52" stop-color="#fff" stop-opacity="0.1"/><stop offset="1" stop-color="#fff" stop-opacity="0"/></linearGradient><linearGradient id="linear-gradient-4" x1="34.13" y1="67.28" x2="86.08" y2="32.52" gradientTransform="matrix(1, 0, 0, -1, 0, 87.91)" gradientUnits="userSpaceOnUse"><stop offset="0" stop-color="#fff"/><stop offset="1" stop-color="#fff" stop-opacity="0"/></linearGradient></defs><path class="cls-1" d="M29.66,9.34,3.31,56.85c-9.42,17,8.13,36.2,25.9,28.37L78.92,63.3a3.76,3.76,0,0,0,1.17-.84c-11.22,7.7-58-42.33-49.58-54.25A3.17,3.17,0,0,0,29.66,9.34Z" transform="translate(-0.68 0.35)"/><ellipse class="cls-2" cx="52.99" cy="32.11" rx="11.44" ry="32.84" transform="translate(-8.47 44.47) rotate(-42.39)"/><ellipse class="cls-3" cx="55.67" cy="35.05" rx="11.44" ry="36.82" transform="translate(-9.75 47.05) rotate(-42.39)"/><path class="cls-4" d="M80.15,61.86c-1,.91-2.59,1.19-4.79.75a26.79,26.79,0,0,1-7.85-3.32c-6-3.49-13.08-9.39-19.91-16.87s-12.06-15.1-15-21.36A26.56,26.56,0,0,1,30,12.94c-.24-2.23.18-3.8,1.17-4.71s2.6-1.18,4.8-.74a27.12,27.12,0,0,1,7.85,3.31c6,3.5,13.08,9.39,19.91,16.87s12.06,15.1,15,21.36a27,27,0,0,1,2.59,8.12C81.57,59.38,81.15,61,80.15,61.86Z" transform="translate(-0.68 0.35)"/><path class="cls-5" d="M81.16,41.42c1.21-9.19-7.89-24.89-20.13-22-6.63,1.55-6.53,11.08,2.33,11.36S80.87,14,72.24,3.75" transform="translate(-0.68 0.35)"/><path class="cls-6" d="M59.38,0,55.47,12.32,46.76,2.77Z" transform="translate(-0.68 0.35)"/><path class="cls-7" d="M88.41,32.45l12.92.59-7,10.89Z" transform="translate(-0.68 0.35)"/><circle class="cls-8" cx="66.77" cy="47.55" r="4.98"/><circle class="cls-9" cx="88.72" cy="14.04" r="4.98"/></svg>