<svg width="32" height="32" viewBox="0 0 32 32" fill="none" xmlns="http://www.w3.org/2000/svg">
<g clip-path="url(#clip0_1_4482)">
<path d="M28.6888 19.4215C30.5298 19.4215 32.0221 17.9292 32.0221 16.0882C32.0221 14.2473 30.5298 12.7549 28.6888 12.7549C26.8479 12.7549 25.3555 14.2473 25.3555 16.0882C25.3555 17.9292 26.8479 19.4215 28.6888 19.4215Z" fill="#BABEC9"/>
<path d="M15.9993 19.3332C17.8403 19.3332 19.3327 17.8408 19.3327 15.9998C19.3327 14.1589 17.8403 12.6665 15.9993 12.6665C14.1584 12.6665 12.666 14.1589 12.666 15.9998C12.666 17.8408 14.1584 19.3332 15.9993 19.3332Z" fill="#BABEC9"/>
<path d="M3.33333 19.3332C5.17428 19.3332 6.66667 17.8408 6.66667 15.9998C6.66667 14.1589 5.17428 12.6665 3.33333 12.6665C1.49238 12.6665 0 14.1589 0 15.9998C0 17.8408 1.49238 19.3332 3.33333 19.3332Z" fill="#BABEC9"/>
</g>
<defs>
<clipPath id="clip0_1_4482">
<rect width="32" height="32" fill="white"/>
</clipPath>
</defs>
</svg>
