<svg width="25" height="25" viewBox="0 0 25 25" fill="none" xmlns="http://www.w3.org/2000/svg">
<path fill-rule="evenodd" clip-rule="evenodd" d="M16.8263 5.94861e-05L16.9231 0.000117142H21.5384L21.6351 5.94861e-05C22.0746 -0.000359741 22.4532 -0.000721259 22.7888 0.0798281C23.8434 0.333038 24.667 1.15657 24.9203 2.21131C25.0007 2.54681 25.0005 2.92552 24.9999 3.36484V3.46163V8.07697V8.17376C25.0005 8.61308 25.0007 8.99181 24.9203 9.32729C24.667 10.382 23.8434 11.2056 22.7888 11.4588C22.4532 11.5393 22.0746 11.539 21.6351 11.5385L21.5384 11.5385H16.9231L16.8263 11.5385C16.3869 11.539 16.0082 11.5393 15.6727 11.4588C14.618 11.2056 13.7945 10.382 13.5413 9.32729C13.4607 8.99181 13.4611 8.61308 13.4615 8.17376L13.4615 8.07697V3.46163L13.4615 3.36484C13.4611 2.92552 13.4607 2.54681 13.5413 2.21131C13.7945 1.15657 14.618 0.333038 15.6727 0.0798281C16.0082 -0.000721259 16.3869 -0.000359741 16.8263 5.94861e-05ZM16.9231 1.92318C16.3312 1.92318 16.2044 1.92987 16.1217 1.94975C15.7701 2.03416 15.4956 2.30866 15.4112 2.66025C15.3913 2.74302 15.3846 2.86975 15.3846 3.46163V8.07697C15.3846 8.66887 15.3913 8.7956 15.4112 8.87835C15.4956 9.22995 15.7701 9.50444 16.1217 9.58886C16.2044 9.60873 16.3312 9.61542 16.9231 9.61542H21.5384C22.1303 9.61542 22.257 9.60873 22.3397 9.58886C22.6913 9.50444 22.9659 9.22995 23.0503 8.87835C23.0701 8.7956 23.0768 8.66887 23.0768 8.07697V3.46163C23.0768 2.86975 23.0701 2.74302 23.0503 2.66025C22.9659 2.30866 22.6913 2.03416 22.3397 1.94975C22.257 1.92987 22.1303 1.92318 21.5384 1.92318H16.9231ZM3.46163 13.4615L3.36484 13.4615C2.92552 13.4611 2.54681 13.4607 2.21131 13.5413C1.15657 13.7945 0.333038 14.618 0.0798281 15.6727C-0.000721259 16.0082 -0.000359741 16.3869 5.94861e-05 16.8263L0.000117142 16.9231V21.5384L5.94861e-05 21.6351C-0.000359741 22.0746 -0.000721259 22.4532 0.0798281 22.7888C0.333038 23.8434 1.15657 24.667 2.21131 24.9203C2.54681 25.0007 2.92552 25.0005 3.36484 24.9999H3.46163H8.07697H8.17376C8.61308 25.0005 8.99181 25.0007 9.32729 24.9203C10.382 24.667 11.2056 23.8434 11.4588 22.7888C11.5393 22.4532 11.539 22.0746 11.5385 21.6351L11.5385 21.5384V16.9231L11.5385 16.8263C11.539 16.3869 11.5393 16.0082 11.4588 15.6727C11.2056 14.618 10.382 13.7945 9.32729 13.5413C8.99181 13.4607 8.61308 13.4611 8.17376 13.4615L8.07697 13.4615H3.46163ZM2.66025 15.4112C2.74302 15.3913 2.86975 15.3846 3.46163 15.3846H8.07697C8.66887 15.3846 8.7956 15.3913 8.87835 15.4112C9.22995 15.4956 9.50444 15.7701 9.58886 16.1217C9.60873 16.2044 9.61542 16.3312 9.61542 16.9231V21.5384C9.61542 22.1303 9.60873 22.257 9.58886 22.3397C9.50444 22.6913 9.22995 22.9659 8.87835 23.0503C8.7956 23.0701 8.66887 23.0768 8.07697 23.0768H3.46163C2.86975 23.0768 2.74302 23.0701 2.66025 23.0503C2.30866 22.9659 2.03416 22.6913 1.94975 22.3397C1.92987 22.257 1.92318 22.1303 1.92318 21.5384V16.9231C1.92318 16.3312 1.92987 16.2044 1.94975 16.1217C2.03416 15.7701 2.30866 15.4956 2.66025 15.4112ZM16.8263 13.4615L16.9231 13.4615H21.5384L21.6351 13.4615C22.0746 13.4611 22.4532 13.4607 22.7888 13.5413C23.8434 13.7945 24.667 14.618 24.9203 15.6727C25.0007 16.0082 25.0005 16.3869 24.9999 16.8263V16.9231V21.5384V21.6351C25.0005 22.0746 25.0007 22.4532 24.9203 22.7888C24.667 23.8434 23.8434 24.667 22.7888 24.9203C22.4532 25.0007 22.0746 25.0005 21.6351 24.9999H21.5384H16.9231H16.8263C16.3869 25.0005 16.0082 25.0007 15.6727 24.9203C14.618 24.667 13.7945 23.8434 13.5413 22.7888C13.4607 22.4532 13.4611 22.0746 13.4615 21.6351L13.4615 21.5384V16.9231L13.4615 16.8263C13.4611 16.3869 13.4607 16.0082 13.5413 15.6727C13.7945 14.618 14.618 13.7945 15.6727 13.5413C16.0082 13.4607 16.3869 13.4611 16.8263 13.4615ZM16.9231 15.3846C16.3312 15.3846 16.2044 15.3913 16.1217 15.4112C15.7701 15.4956 15.4956 15.7701 15.4112 16.1217C15.3913 16.2044 15.3846 16.3312 15.3846 16.9231V21.5384C15.3846 22.1303 15.3913 22.257 15.4112 22.3397C15.4956 22.6913 15.7701 22.9659 16.1217 23.0503C16.2044 23.0701 16.3312 23.0768 16.9231 23.0768H21.5384C22.1303 23.0768 22.257 23.0701 22.3397 23.0503C22.6913 22.9659 22.9659 22.6913 23.0503 22.3397C23.0701 22.257 23.0768 22.1303 23.0768 21.5384V16.9231C23.0768 16.3312 23.0701 16.2044 23.0503 16.1217C22.9659 15.7701 22.6913 15.4956 22.3397 15.4112C22.257 15.3913 22.1303 15.3846 21.5384 15.3846H16.9231Z" fill="white"/>
<path d="M2.66025 1.94975C2.74302 1.92987 2.86975 1.92318 3.46163 1.92318H8.07697C8.66887 1.92318 8.7956 1.92987 8.87835 1.94975C9.22995 2.03416 9.50444 2.30866 9.58886 2.66025C9.60873 2.74302 9.61542 2.86975 9.61542 3.46163V8.07697C9.61542 8.66887 9.60873 8.7956 9.58886 8.87835C9.50444 9.22995 9.22995 9.50444 8.87835 9.58886C8.7956 9.60873 8.66887 9.61542 8.07697 9.61542H3.46163C2.86975 9.61542 2.74302 9.60873 2.66025 9.58886C2.30866 9.50444 2.03416 9.22995 1.94975 8.87835C1.92987 8.7956 1.92318 8.66887 1.92318 8.07697V3.46163C1.92318 2.86975 1.92987 2.74302 1.94975 2.66025C2.03416 2.30866 2.30866 2.03416 2.66025 1.94975Z" fill="white"/>
<path fill-rule="evenodd" clip-rule="evenodd" d="M3.46163 0.000117142L3.36484 5.94861e-05C2.92552 -0.000359741 2.54681 -0.000721259 2.21131 0.0798281C1.15657 0.333038 0.333038 1.15657 0.0798281 2.21131C-0.000721259 2.54681 -0.000359741 2.92552 5.94861e-05 3.36484L0.000117142 3.46163V8.07697L5.94861e-05 8.17376C-0.000359741 8.61308 -0.000721259 8.99181 0.0798281 9.32729C0.333038 10.382 1.15657 11.2056 2.21131 11.4588C2.54681 11.5393 2.92552 11.539 3.36484 11.5385L3.46163 11.5385H8.07697L8.17376 11.5385C8.61308 11.539 8.99181 11.5393 9.32729 11.4588C10.382 11.2056 11.2056 10.382 11.4588 9.32729C11.5393 8.99181 11.539 8.61308 11.5385 8.17376L11.5385 8.07697V3.46163L11.5385 3.36484C11.539 2.92552 11.5393 2.54681 11.4588 2.21131C11.2056 1.15657 10.382 0.333038 9.32729 0.0798281C8.99181 -0.000721259 8.61308 -0.000359741 8.17376 5.94861e-05L8.07697 0.000117142H3.46163ZM3.46163 1.92318C2.86975 1.92318 2.74302 1.92987 2.66025 1.94975C2.30866 2.03416 2.03416 2.30866 1.94975 2.66025C1.92987 2.74302 1.92318 2.86975 1.92318 3.46163V8.07697C1.92318 8.66887 1.92987 8.7956 1.94975 8.87835C2.03416 9.22995 2.30866 9.50444 2.66025 9.58886C2.74302 9.60873 2.86975 9.61542 3.46163 9.61542H8.07697C8.66887 9.61542 8.7956 9.60873 8.87835 9.58886C9.22995 9.50444 9.50444 9.22995 9.58886 8.87835C9.60873 8.7956 9.61542 8.66887 9.61542 8.07697V3.46163C9.61542 2.86975 9.60873 2.74302 9.58886 2.66025C9.50444 2.30866 9.22995 2.03416 8.87835 1.94975C8.7956 1.92987 8.66887 1.92318 8.07697 1.92318H3.46163Z" fill="white"/>
<path d="M16.1217 15.4112C16.2044 15.3913 16.3312 15.3846 16.9231 15.3846H21.5384C22.1303 15.3846 22.257 15.3913 22.3397 15.4112C22.6913 15.4956 22.9659 15.7701 23.0503 16.1217C23.0701 16.2044 23.0768 16.3312 23.0768 16.9231V21.5384C23.0768 22.1303 23.0701 22.257 23.0503 22.3397C22.9659 22.6913 22.6913 22.9659 22.3397 23.0503C22.257 23.0701 22.1303 23.0768 21.5384 23.0768H16.9231C16.3312 23.0768 16.2044 23.0701 16.1217 23.0503C15.7701 22.9659 15.4956 22.6913 15.4112 22.3397C15.3913 22.257 15.3846 22.1303 15.3846 21.5384V16.9231C15.3846 16.3312 15.3913 16.2044 15.4112 16.1217C15.4956 15.7701 15.7701 15.4956 16.1217 15.4112Z" fill="white"/>
</svg>
