<svg width="43" height="43" viewBox="0 0 43 43" fill="none" xmlns="http://www.w3.org/2000/svg">
<path d="M30.1901 0H12.8099C5.74651 0 0 5.74651 0 12.8099V30.1901C0 37.2535 5.74651 43 12.8099 43H30.1901C37.2535 43 43 37.2535 43 30.1901V12.8099C42.9999 5.74651 37.2534 0 30.1901 0ZM38.6742 30.1901C38.6742 34.8757 34.8757 38.6742 30.1901 38.6742H12.8099C8.12431 38.6742 4.3258 34.8757 4.3258 30.1901V12.8099C4.3258 8.12424 8.12431 4.3258 12.8099 4.3258H30.1901C34.8757 4.3258 38.6742 8.12424 38.6742 12.8099V30.1901Z" fill="white"/>
<path d="M21.5 10.3787C15.3677 10.3787 10.3787 15.3677 10.3787 21.4999C10.3787 27.6322 15.3677 32.6213 21.5 32.6213C27.6323 32.6213 32.6213 27.6322 32.6213 21.4999C32.6213 15.3676 27.6323 10.3787 21.5 10.3787ZM21.5 28.2955C17.7469 28.2955 14.7045 25.2531 14.7045 21.5C14.7045 17.7469 17.747 14.7045 21.5 14.7045C25.2531 14.7045 28.2955 17.7469 28.2955 21.5C28.2955 25.253 25.253 28.2955 21.5 28.2955Z" fill="white"/>
<path d="M32.6426 13.1271C34.1143 13.1271 35.3074 11.9341 35.3074 10.4623C35.3074 8.99058 34.1143 7.7975 32.6426 7.7975C31.1708 7.7975 29.9777 8.99058 29.9777 10.4623C29.9777 11.9341 31.1708 13.1271 32.6426 13.1271Z" fill="white"/>
</svg>
