<svg width="84" height="77" viewBox="0 0 84 77" fill="none" xmlns="http://www.w3.org/2000/svg">
<g filter="url(#filter0_f_466_344)">
<path d="M21.6602 20.674C21.6602 19.0105 23.0528 17.6602 24.7696 17.6602H60.624C62.3414 17.6602 63.7335 19.0105 63.7335 20.674V56.7202C63.7335 58.3842 62.3414 59.7335 60.624 59.7335H24.7696C23.053 59.7335 21.6602 58.3844 21.6602 56.7207V20.6735V20.674Z" fill="#006699"/>
<path d="M34.4453 52.8701V33.9286H28.1494V52.8701H34.446H34.4453ZM31.2987 31.3429C33.4937 31.3429 34.8603 29.8884 34.8603 28.0707C34.8192 26.2116 33.4937 24.7977 31.3404 24.7977C29.1856 24.7977 27.7783 26.2116 27.7783 28.0705C27.7783 29.8882 29.1444 31.3427 31.2574 31.3427H31.2982L31.2987 31.3429ZM37.9302 52.8701H44.2255V42.2935C44.2255 41.7281 44.2666 41.1613 44.4329 40.7575C44.8879 39.6259 45.9238 38.4546 47.6634 38.4546C49.9409 38.4546 50.8526 40.1914 50.8526 42.738V52.8701H57.1478V42.0096C57.1478 36.1918 54.0423 33.4845 49.9002 33.4845C46.5042 33.4845 45.0128 35.3826 44.1841 36.6754H44.226V33.9293H37.9305C38.0127 35.7062 37.93 52.8708 37.93 52.8708L37.9302 52.8701Z" fill="white"/>
</g>
<rect x="0.5" y="9.5" width="83" height="57" rx="9.5" fill="url(#paint0_linear_466_344)" stroke="#E3E3E3"/>
<rect x="0.5" y="9.5" width="83" height="57" rx="9.5" fill="url(#paint1_linear_466_344)" stroke="#E3E3E3"/>
<path d="M26.3027 24.5726C26.3027 23.3196 27.3518 22.3025 28.6449 22.3025H55.6521C56.9458 22.3025 57.9943 23.3196 57.9943 24.5726V51.7243C57.9943 52.9777 56.9458 53.9941 55.6521 53.9941H28.6449C27.3519 53.9941 26.3027 52.9779 26.3027 51.7247V24.5723V24.5726Z" fill="#006699"/>
<path d="M35.933 48.8243V34.5566H31.1907V48.8243H35.9335H35.933ZM33.5628 32.6089C35.2162 32.6089 36.2456 31.5133 36.2456 30.1442C36.2146 28.7438 35.2162 27.6788 33.5943 27.6788C31.9712 27.6788 30.9111 28.7438 30.9111 30.144C30.9111 31.5132 31.9401 32.6088 33.5318 32.6088H33.5625L33.5628 32.6089ZM38.558 48.8243H43.2999V40.8574C43.2999 40.4316 43.3309 40.0046 43.4562 39.7004C43.7988 38.8481 44.5791 37.9658 45.8895 37.9658C47.6051 37.9658 48.2917 39.2741 48.2917 41.1923V48.8243H53.0336V40.6436C53.0336 36.2614 50.6944 34.2221 47.5744 34.2221C45.0164 34.2221 43.8929 35.6518 43.2688 36.6256H43.3003V34.5571H38.5582C38.6201 35.8956 38.5578 48.8248 38.5578 48.8248L38.558 48.8243Z" fill="white"/>
<defs>
<filter id="filter0_f_466_344" x="11.6602" y="7.6602" width="62.0732" height="62.0733" filterUnits="userSpaceOnUse" color-interpolation-filters="sRGB">
<feFlood flood-opacity="0" result="BackgroundImageFix"/>
<feBlend mode="normal" in="SourceGraphic" in2="BackgroundImageFix" result="shape"/>
<feGaussianBlur stdDeviation="5" result="effect1_foregroundBlur_466_344"/>
</filter>
<linearGradient id="paint0_linear_466_344" x1="-13" y1="1" x2="87.5" y2="72.5" gradientUnits="userSpaceOnUse">
<stop stop-color="#D9D9D9"/>
<stop offset="1" stop-color="#D9D9D9" stop-opacity="0"/>
</linearGradient>
<linearGradient id="paint1_linear_466_344" x1="-13" y1="1" x2="87.5" y2="72.5" gradientUnits="userSpaceOnUse">
<stop stop-color="white"/>
<stop offset="1" stop-color="#D9D9D9" stop-opacity="0"/>
</linearGradient>
</defs>
</svg>
