<svg width="46" height="33" viewBox="0 0 46 33" fill="none" xmlns="http://www.w3.org/2000/svg">
<path d="M41.5005 0.358887H4.50048C2.17047 0.358887 0.250508 2.10018 0.0205078 4.32082L19.9205 23.7882C21.5206 25.3535 24.3905 25.4415 26.1806 23.6904L45.9806 4.32082C45.7504 2.10018 43.8305 0.358887 41.5005 0.358887Z" fill="white"/>
<path d="M28.3008 25.7648C26.8828 27.1529 24.9902 27.9172 22.9727 27.9172C21.0186 27.9172 19.1329 27.1692 17.7989 25.8632L0 8.45212V28.2391C0 30.6652 2.02005 32.6413 4.5 32.6413H41.5C43.98 32.6413 46 30.6652 46 28.2391V8.45194L28.3008 25.7648Z" fill="white"/>
</svg>
