<svg width="21" height="22" viewBox="0 0 21 22" fill="none" xmlns="http://www.w3.org/2000/svg">
<path d="M10.4999 0.0415039C11.1838 0.0415039 11.8611 0.176221 12.493 0.437965C13.1249 0.699708 13.6991 1.08335 14.1827 1.56699C14.6664 2.05063 15.05 2.62479 15.3117 3.25669C15.5735 3.8886 15.7082 4.56587 15.7082 5.24984V11.4998C15.7082 12.8812 15.1595 14.2059 14.1827 15.1827C13.206 16.1594 11.8812 16.7082 10.4999 16.7082C9.11853 16.7082 7.79377 16.1594 6.81702 15.1827C5.84027 14.2059 5.29154 12.8812 5.29154 11.4998V5.24984C5.29154 3.8685 5.84027 2.54374 6.81702 1.56699C7.79377 0.590237 9.11853 0.0415039 10.4999 0.0415039ZM0.283203 13.5436L2.32695 13.1342C2.70653 15.0222 3.72803 16.7205 5.2179 17.9407C6.70777 19.1608 8.57413 19.8275 10.4999 19.8275C12.4256 19.8275 14.292 19.1608 15.7818 17.9407C17.2717 16.7205 18.2932 15.0222 18.6728 13.1342L20.7165 13.5436C19.7665 18.3175 15.552 21.9165 10.4999 21.9165C5.44779 21.9165 1.2332 18.3175 0.283203 13.5436Z" fill="#2B2B2B"/>
</svg>
