<svg width="17" height="17" viewBox="0 0 17 17" fill="none" xmlns="http://www.w3.org/2000/svg">
<g clip-path="url(#clip0_1_4812)">
<path d="M0.830167 13.5426C0.298777 14.0738 0.000160473 14.7944 0 15.5458L0 17H1.45421C2.20559 16.9998 2.92615 16.7012 3.45738 16.1698L12.9087 6.71852L10.2815 4.09131L0.830167 13.5426Z" fill="white"/>
<path d="M16.3926 0.605574C16.2201 0.432907 16.0153 0.29593 15.7898 0.202473C15.5644 0.109016 15.3227 0.0609131 15.0786 0.0609131C14.8346 0.0609131 14.5929 0.109016 14.3674 0.202473C14.142 0.29593 13.9372 0.432907 13.7647 0.605574L11.2812 3.0897L13.9085 5.71691L16.3926 3.23349C16.5653 3.061 16.7022 2.85618 16.7957 2.63072C16.8891 2.40526 16.9372 2.16359 16.9372 1.91953C16.9372 1.67547 16.8891 1.4338 16.7957 1.20835C16.7022 0.982888 16.5653 0.778061 16.3926 0.605574Z" fill="white"/>
</g>
<defs>
<clipPath id="clip0_1_4812">
<rect width="17" height="17" fill="white"/>
</clipPath>
</defs>
</svg>
