<svg width="130" height="141" viewBox="0 0 130 141" fill="none" xmlns="http://www.w3.org/2000/svg">
<g filter="url(#filter0_bii_275_234)">
<rect x="0.5" y="76.3438" width="129" height="64.5" rx="11" fill="#2A3038" fill-opacity="0.74"/>
</g>
<g filter="url(#filter1_b_275_234)">
<path d="M118.75 55.7951C118.75 81.9495 78.4648 122.533 67.6468 132.96C66.1488 134.404 63.8512 134.404 62.3532 132.96C51.5352 122.533 11.25 81.9495 11.25 55.7951C11.25 25.5844 35.3147 1.09375 65 1.09375C94.6853 1.09375 118.75 25.5844 118.75 55.7951Z" fill="white" fill-opacity="0.2"/>
<path d="M67.9938 133.32C73.4099 128.1 86.2052 115.328 97.6501 100.582C103.372 93.2091 108.766 85.3316 112.731 77.649C116.691 69.9747 119.25 62.4503 119.25 55.7951C119.25 25.3165 94.9697 0.59375 65 0.59375C35.0303 0.59375 10.75 25.3165 10.75 55.7951C10.75 62.4503 13.3087 69.9747 17.2693 77.649C21.2341 85.3316 26.6276 93.2091 32.3499 100.582C43.7948 115.328 56.5901 128.1 62.0062 133.32C63.6979 134.95 66.3021 134.95 67.9938 133.32Z" stroke="url(#paint0_linear_275_234)" stroke-opacity="0.5"/>
</g>
<g filter="url(#filter2_d_275_234)">
<circle cx="65" cy="52.1562" r="16.125" fill="#D9D9D9"/>
</g>
<defs>
<filter id="filter0_bii_275_234" x="-119.094" y="-43.25" width="368.187" height="303.687" filterUnits="userSpaceOnUse" color-interpolation-filters="sRGB">
<feFlood flood-opacity="0" result="BackgroundImageFix"/>
<feGaussianBlur in="BackgroundImageFix" stdDeviation="59.7969"/>
<feComposite in2="SourceAlpha" operator="in" result="effect1_backgroundBlur_275_234"/>
<feBlend mode="normal" in="SourceGraphic" in2="effect1_backgroundBlur_275_234" result="shape"/>
<feColorMatrix in="SourceAlpha" type="matrix" values="0 0 0 0 0 0 0 0 0 0 0 0 0 0 0 0 0 0 127 0" result="hardAlpha"/>
<feOffset/>
<feGaussianBlur stdDeviation="8.96953"/>
<feComposite in2="hardAlpha" operator="arithmetic" k2="-1" k3="1"/>
<feColorMatrix type="matrix" values="0 0 0 0 1 0 0 0 0 1 0 0 0 0 1 0 0 0 0.15 0"/>
<feBlend mode="normal" in2="shape" result="effect2_innerShadow_275_234"/>
<feColorMatrix in="SourceAlpha" type="matrix" values="0 0 0 0 0 0 0 0 0 0 0 0 0 0 0 0 0 0 127 0" result="hardAlpha"/>
<feOffset dx="5.97969" dy="4.78375"/>
<feGaussianBlur stdDeviation="23.9187"/>
<feComposite in2="hardAlpha" operator="arithmetic" k2="-1" k3="1"/>
<feColorMatrix type="matrix" values="0 0 0 0 1 0 0 0 0 1 0 0 0 0 1 0 0 0 0.1 0"/>
<feBlend mode="normal" in2="effect2_innerShadow_275_234" result="effect3_innerShadow_275_234"/>
</filter>
<filter id="filter1_b_275_234" x="-9.75" y="-19.9062" width="149.5" height="174.949" filterUnits="userSpaceOnUse" color-interpolation-filters="sRGB">
<feFlood flood-opacity="0" result="BackgroundImageFix"/>
<feGaussianBlur in="BackgroundImageFix" stdDeviation="10"/>
<feComposite in2="SourceAlpha" operator="in" result="effect1_backgroundBlur_275_234"/>
<feBlend mode="normal" in="SourceGraphic" in2="effect1_backgroundBlur_275_234" result="shape"/>
</filter>
<filter id="filter2_d_275_234" x="44.875" y="36.0312" width="40.25" height="40.25" filterUnits="userSpaceOnUse" color-interpolation-filters="sRGB">
<feFlood flood-opacity="0" result="BackgroundImageFix"/>
<feColorMatrix in="SourceAlpha" type="matrix" values="0 0 0 0 0 0 0 0 0 0 0 0 0 0 0 0 0 0 127 0" result="hardAlpha"/>
<feOffset dy="4"/>
<feGaussianBlur stdDeviation="2"/>
<feComposite in2="hardAlpha" operator="out"/>
<feColorMatrix type="matrix" values="0 0 0 0 0 0 0 0 0 0 0 0 0 0 0 0 0 0 0.1 0"/>
<feBlend mode="normal" in2="BackgroundImageFix" result="effect1_dropShadow_275_234"/>
<feBlend mode="normal" in="SourceGraphic" in2="effect1_dropShadow_275_234" result="shape"/>
</filter>
<linearGradient id="paint0_linear_275_234" x1="11.25" y1="30.9309" x2="108.852" y2="183.751" gradientUnits="userSpaceOnUse">
<stop stop-opacity="0"/>
<stop offset="1" stop-color="white"/>
</linearGradient>
</defs>
</svg>
