<svg width="87" height="97" viewBox="0 0 87 97" fill="none" xmlns="http://www.w3.org/2000/svg">
<g filter="url(#filter0_bii_362_428)">
<rect y="53.3846" width="87" height="43.3846" rx="11" fill="#015DC1" fill-opacity="0.74"/>
</g>
<g filter="url(#filter1_b_362_428)">
<path d="M79.75 37.7937C79.75 54.756 54.4917 80.7414 46.143 88.8671C44.655 90.3154 42.345 90.3154 40.857 88.8671C32.5083 80.7414 7.25 54.756 7.25 37.7937C7.25 17.4731 23.4797 1 43.5 1C63.5203 1 79.75 17.4731 79.75 37.7937Z" fill="white" fill-opacity="0.2"/>
<path d="M46.4918 89.2254C50.6734 85.1555 59.0949 76.6082 66.4746 66.9477C70.1643 62.1176 73.6021 56.9983 76.1193 52.0126C78.6327 47.0344 80.25 42.1477 80.25 37.7937C80.25 17.204 63.8035 0.5 43.5 0.5C23.1965 0.5 6.75 17.204 6.75 37.7937C6.75 42.1477 8.36729 47.0344 10.8807 52.0126C13.3979 56.9983 16.8357 62.1176 20.5254 66.9477C27.9051 76.6082 36.3266 85.1555 40.5082 89.2254C42.1904 90.8626 44.8096 90.8626 46.4918 89.2254Z" stroke="url(#paint0_linear_362_428)" stroke-opacity="0.5"/>
</g>
<g filter="url(#filter2_d_362_428)">
<ellipse cx="43.5" cy="35.3462" rx="10.875" ry="10.8462" fill="white"/>
</g>
<defs>
<filter id="filter0_bii_362_428" x="-119.594" y="-66.2091" width="326.187" height="282.572" filterUnits="userSpaceOnUse" color-interpolation-filters="sRGB">
<feFlood flood-opacity="0" result="BackgroundImageFix"/>
<feGaussianBlur in="BackgroundImageFix" stdDeviation="59.7969"/>
<feComposite in2="SourceAlpha" operator="in" result="effect1_backgroundBlur_362_428"/>
<feBlend mode="normal" in="SourceGraphic" in2="effect1_backgroundBlur_362_428" result="shape"/>
<feColorMatrix in="SourceAlpha" type="matrix" values="0 0 0 0 0 0 0 0 0 0 0 0 0 0 0 0 0 0 127 0" result="hardAlpha"/>
<feOffset/>
<feGaussianBlur stdDeviation="8.96953"/>
<feComposite in2="hardAlpha" operator="arithmetic" k2="-1" k3="1"/>
<feColorMatrix type="matrix" values="0 0 0 0 1 0 0 0 0 1 0 0 0 0 1 0 0 0 0.15 0"/>
<feBlend mode="normal" in2="shape" result="effect2_innerShadow_362_428"/>
<feColorMatrix in="SourceAlpha" type="matrix" values="0 0 0 0 0 0 0 0 0 0 0 0 0 0 0 0 0 0 127 0" result="hardAlpha"/>
<feOffset dx="5.97969" dy="4.78375"/>
<feGaussianBlur stdDeviation="23.9187"/>
<feComposite in2="hardAlpha" operator="arithmetic" k2="-1" k3="1"/>
<feColorMatrix type="matrix" values="0 0 0 0 1 0 0 0 0 1 0 0 0 0 1 0 0 0 0.1 0"/>
<feBlend mode="normal" in2="effect2_innerShadow_362_428" result="effect3_innerShadow_362_428"/>
</filter>
<filter id="filter1_b_362_428" x="-13.75" y="-20" width="114.5" height="130.953" filterUnits="userSpaceOnUse" color-interpolation-filters="sRGB">
<feFlood flood-opacity="0" result="BackgroundImageFix"/>
<feGaussianBlur in="BackgroundImageFix" stdDeviation="10"/>
<feComposite in2="SourceAlpha" operator="in" result="effect1_backgroundBlur_362_428"/>
<feBlend mode="normal" in="SourceGraphic" in2="effect1_backgroundBlur_362_428" result="shape"/>
</filter>
<filter id="filter2_d_362_428" x="28.625" y="24.5" width="29.75" height="29.6923" filterUnits="userSpaceOnUse" color-interpolation-filters="sRGB">
<feFlood flood-opacity="0" result="BackgroundImageFix"/>
<feColorMatrix in="SourceAlpha" type="matrix" values="0 0 0 0 0 0 0 0 0 0 0 0 0 0 0 0 0 0 127 0" result="hardAlpha"/>
<feOffset dy="4"/>
<feGaussianBlur stdDeviation="2"/>
<feComposite in2="hardAlpha" operator="out"/>
<feColorMatrix type="matrix" values="0 0 0 0 0 0 0 0 0 0 0 0 0 0 0 0 0 0 0.1 0"/>
<feBlend mode="normal" in2="BackgroundImageFix" result="effect1_dropShadow_362_428"/>
<feBlend mode="normal" in="SourceGraphic" in2="effect1_dropShadow_362_428" result="shape"/>
</filter>
<linearGradient id="paint0_linear_362_428" x1="7.24999" y1="21.0693" x2="72.8266" y2="124.019" gradientUnits="userSpaceOnUse">
<stop stop-color="#FAFAFA" stop-opacity="0"/>
<stop offset="1" stop-color="white"/>
</linearGradient>
</defs>
</svg>
