<svg width="27" height="27" viewBox="0 0 27 27" fill="none" xmlns="http://www.w3.org/2000/svg">
<path d="M13.5 17.8751L13.5 16.8751L13.5 17.8751ZM5.02177 24.5424C4.90716 25.0827 5.25223 25.6136 5.79249 25.7282C6.33276 25.8428 6.86363 25.4977 6.97823 24.9575L5.02177 24.5424ZM20.0218 24.9575C20.1364 25.4978 20.6672 25.8428 21.2075 25.7282C21.7478 25.6136 22.0928 25.0828 21.9782 24.5425L20.0218 24.9575ZM10.1675 10.5833L11.1675 10.5865V10.5833H10.1675ZM13.4764 14.5417L13.4724 15.5417H13.4764V14.5417ZM6.86006 25.509L7.19034 24.5651L6.86006 25.509ZM1.49102 20.1399L2.4349 19.8097L1.49102 20.1399ZM25.509 20.1399L24.5651 19.8097L25.509 20.1399ZM20.1399 25.509L19.8097 24.5651L20.1399 25.509ZM20.1399 1.49102L19.8097 2.4349L20.1399 1.49102ZM25.509 6.86006L24.5651 7.19034L25.509 6.86006ZM6.86006 1.49102L7.19034 2.4349L6.86006 1.49102ZM1.49102 6.86006L2.4349 7.19034L1.49102 6.86006ZM13.5 16.8751C11.1593 16.8751 9.23964 17.7113 7.7993 19.1259C6.37561 20.5241 5.46825 22.4376 5.02177 24.5424L6.97823 24.9575C7.36508 23.1338 8.12439 21.6099 9.2007 20.5528C10.2604 19.5121 11.674 18.8751 13.5 18.8751L13.5 16.8751ZM21.9782 24.5425C21.5318 22.4376 20.6244 20.5241 19.2007 19.1258C17.7604 17.7112 15.8407 16.875 13.5 16.8751L13.5 18.8751C15.326 18.875 16.7396 19.512 17.7993 20.5527C18.8756 21.6098 19.6349 23.1338 20.0218 24.9575L21.9782 24.5425ZM13.5008 15.5417C16.0479 15.5417 17.8341 13.1549 17.8341 10.5833H15.8341C15.8341 12.3858 14.6353 13.5417 13.5008 13.5417V15.5417ZM17.8341 10.5833C17.8341 8.01303 16.048 5.625 13.5008 5.625V7.625C14.6352 7.625 15.8341 8.78175 15.8341 10.5833H17.8341ZM13.5008 5.625C10.9536 5.625 9.16751 8.01303 9.16751 10.5833H11.1675C11.1675 8.78175 12.3665 7.625 13.5008 7.625V5.625ZM9.16751 10.5801C9.1593 13.1428 10.9315 15.5316 13.4724 15.5417L13.4803 13.5417C12.3519 13.5372 11.1617 12.3813 11.1675 10.5865L9.16751 10.5801ZM13.4764 15.5417H13.5008V13.5417H13.4764V15.5417ZM13.5 25C9.92518 25 8.3928 24.9859 7.19034 24.5651L6.52978 26.4529C8.13383 27.0141 10.0926 27 13.5 27V25ZM0 13.5C0 16.9074 -0.0141456 18.8662 0.547138 20.4702L2.4349 19.8097C2.01415 18.6072 2 17.0748 2 13.5H0ZM7.19034 24.5651C4.96417 23.7861 3.21387 22.0358 2.4349 19.8097L0.547138 20.4702C1.52713 23.2709 3.72912 25.4729 6.52978 26.4529L7.19034 24.5651ZM25 13.5C25 17.0748 24.9859 18.6072 24.5651 19.8097L26.4529 20.4702C27.0141 18.8662 27 16.9074 27 13.5H25ZM13.5 27C16.9074 27 18.8662 27.0141 20.4702 26.4529L19.8097 24.5651C18.6072 24.9859 17.0748 25 13.5 25V27ZM24.5651 19.8097C23.7861 22.0358 22.0358 23.7861 19.8097 24.5651L20.4702 26.4529C23.2709 25.4729 25.4729 23.2709 26.4529 20.4702L24.5651 19.8097ZM13.5 2C17.0748 2 18.6072 2.01415 19.8097 2.4349L20.4702 0.547138C18.8662 -0.0141456 16.9074 0 13.5 0V2ZM27 13.5C27 10.0926 27.0141 8.13383 26.4529 6.52978L24.5651 7.19034C24.9859 8.3928 25 9.92518 25 13.5H27ZM19.8097 2.4349C22.0358 3.21387 23.7861 4.96417 24.5651 7.19034L26.4529 6.52978C25.4729 3.72912 23.2709 1.52713 20.4702 0.547138L19.8097 2.4349ZM13.5 0C10.0926 0 8.13383 -0.0141456 6.52978 0.547138L7.19034 2.4349C8.3928 2.01415 9.92518 2 13.5 2V0ZM2 13.5C2 9.92518 2.01415 8.3928 2.4349 7.19034L0.547138 6.52978C-0.0141456 8.13383 0 10.0926 0 13.5H2ZM6.52978 0.547138C3.72912 1.52713 1.52713 3.72912 0.547138 6.52978L2.4349 7.19034C3.21387 4.96417 4.96417 3.21387 7.19034 2.4349L6.52978 0.547138Z" fill="white"/>
</svg>
