<svg width="19" height="18" viewBox="0 0 19 18" fill="none" xmlns="http://www.w3.org/2000/svg">
<path d="M17.7877 16.7171L12.619 11.5447C13.638 10.3226 14.2508 8.76095 14.2508 7.05528C14.2508 3.16398 11.0573 0 7.12911 0C3.2009 0 0 3.16767 0 7.05897C0 10.9503 3.19352 14.1142 7.12173 14.1142C8.79048 14.1142 10.3263 13.542 11.5447 12.5858L16.7318 17.7729C17.0346 18.0757 17.485 18.0757 17.7877 17.7729C18.0905 17.4702 18.0905 17.0198 17.7877 16.7171ZM1.51369 7.05897C1.51369 4.00205 4.03159 1.51738 7.12173 1.51738C10.2119 1.51738 12.7298 4.00205 12.7298 7.05897C12.7298 10.1159 10.2119 12.6006 7.12173 12.6006C4.03159 12.6006 1.51369 10.1122 1.51369 7.05897Z" fill="white"/>
</svg>
