<svg width="43" height="37" viewBox="0 0 43 37" fill="none" xmlns="http://www.w3.org/2000/svg">
<path d="M42.3161 4.77714C41.3607 5.20079 40.3689 5.53502 39.3513 5.77699C40.4726 4.71141 41.3157 3.3786 41.7914 1.89094C41.9272 1.46624 41.4659 1.09899 41.0824 1.32639C39.6666 2.16614 38.1416 2.79612 36.5497 3.19901C36.4573 3.22239 36.362 3.23424 36.2664 3.23424C35.9764 3.23424 35.6945 3.12657 35.4728 2.93115C33.779 1.43835 31.6006 0.616211 29.3389 0.616211C28.3602 0.616211 27.3721 0.768751 26.4019 1.06964C23.396 2.00197 21.0767 4.4815 20.349 7.54068C20.076 8.68814 20.0021 9.83665 20.1291 10.9542C20.1437 11.0826 20.083 11.1723 20.0456 11.2143C19.9799 11.288 19.8867 11.3303 19.7899 11.3303C19.7791 11.3303 19.768 11.3298 19.757 11.3287C13.1771 10.7174 7.24367 7.54739 3.04961 2.40276C2.83574 2.14035 2.42561 2.17254 2.25514 2.46493C1.43384 3.87396 0.999807 5.48554 0.999807 7.12542C0.999807 9.6386 2.00951 12.007 3.76335 13.7336C3.02581 13.5587 2.31196 13.2833 1.64886 12.915C1.32806 12.7368 0.93334 12.9659 0.928832 13.3328C0.882912 17.0663 3.06879 20.3884 6.34332 21.8844C6.27737 21.8859 6.21143 21.8867 6.14538 21.8867C5.62633 21.8867 5.10077 21.8366 4.5835 21.7377C4.22223 21.6687 3.91872 22.0114 4.0309 22.3617C5.09375 25.6799 7.9508 28.1258 11.3698 28.6811C8.53224 30.5859 5.22784 31.5907 1.78861 31.5907L0.716429 31.5901C0.386083 31.5901 0.106689 31.8054 0.0225036 32.1254C-0.0604236 32.4405 0.092326 32.773 0.374027 32.9368C4.24948 35.1922 8.67 36.3842 13.1596 36.3842C17.0895 36.3842 20.7655 35.6044 24.0857 34.0664C27.1295 32.6564 29.8193 30.6409 32.0802 28.0758C34.1864 25.6863 35.8334 22.9279 36.9753 19.8773C38.0639 16.9694 38.6392 13.8666 38.6392 10.9043V10.7632C38.6391 10.2876 38.8542 9.84 39.2296 9.53534C40.6538 8.37897 41.894 7.01775 42.9157 5.48952C43.1854 5.086 42.76 4.58026 42.3161 4.77714Z" fill="white"/>
</svg>
